<svg width="18" height="18" viewBox="0 0 18 18" fill="none" xmlns="http://www.w3.org/2000/svg">
<path fill-rule="evenodd" clip-rule="evenodd" d="M5.0625 7.78408C5.0625 5.0466 7.369 2.8125 10.1952 2.8125C14.1872 2.8125 17.4375 5.96075 17.4375 9.82747C17.4375 9.93005 17.3516 10.0132 17.2457 10.0132C17.1398 10.0132 17.054 9.93005 17.054 9.82747C17.054 6.16591 13.9754 3.18398 10.1952 3.18398C7.58081 3.18398 5.44602 5.25176 5.44602 7.78408C5.44602 8.76996 5.73969 9.53406 6.32116 10.054C6.90512 10.5761 7.80894 10.8785 9.08487 10.8785C9.19078 10.8785 9.27663 10.9617 9.27663 11.0643C9.27663 11.1668 9.19078 11.25 9.08487 11.25C7.75155 11.25 6.74006 10.9341 6.06103 10.3269C5.37951 9.71757 5.0625 8.84159 5.0625 7.78408Z" fill="black"/>
<path fill-rule="evenodd" clip-rule="evenodd" d="M7.63057 6.08432C8.22701 5.39346 9.10469 5.0625 10.2159 5.0625C12.9534 5.0625 15.1875 7.369 15.1875 10.1952C15.1875 14.1872 12.0393 17.4375 8.17253 17.4375C8.06995 17.4375 7.98679 17.3516 7.98679 17.2457C7.98679 17.1398 8.06995 17.054 8.17253 17.054C11.8341 17.054 14.816 13.9754 14.816 10.1952C14.816 7.58081 12.7482 5.44602 10.2159 5.44602C9.17622 5.44602 8.4138 5.7535 7.90789 6.33951C7.39851 6.92953 7.12148 7.83355 7.12148 9.08487C7.12148 9.19078 7.03832 9.27663 6.93574 9.27663C6.83316 9.27663 6.75 9.19078 6.75 9.08487C6.75 7.78245 7.0376 6.77117 7.63057 6.08432Z" fill="black"/>
<path fill-rule="evenodd" clip-rule="evenodd" d="M8.72337 6.93457C8.72337 6.83263 8.80922 6.75 8.91513 6.75C10.2175 6.75 11.2294 7.03577 11.9165 7.63242C12.6073 8.23226 12.9375 9.11779 12.9375 10.2474C12.9375 12.9676 10.631 15.1875 7.80481 15.1875C3.81277 15.1875 0.5625 12.0592 0.5625 8.21696C0.5625 8.11502 0.648354 8.03239 0.754261 8.03239C0.860168 8.03239 0.946023 8.11502 0.946023 8.21696C0.946023 11.8553 4.02459 14.8184 7.80481 14.8184C10.4192 14.8184 12.554 12.7637 12.554 10.2474C12.554 9.18627 12.2457 8.41539 11.6596 7.90649C11.0699 7.39441 10.1665 7.11913 8.91513 7.11913C8.80922 7.11913 8.72337 7.0365 8.72337 6.93457Z" fill="black"/>
<path fill-rule="evenodd" clip-rule="evenodd" d="M2.8125 7.80481C2.8125 3.81277 5.96075 0.5625 9.82747 0.5625C9.93005 0.5625 10.0132 0.648354 10.0132 0.754261C10.0132 0.860168 9.93005 0.946023 9.82747 0.946023C6.16591 0.946023 3.18398 4.02459 3.18398 7.80481C3.18398 10.4192 5.25176 12.554 7.78408 12.554C8.65346 12.554 9.42253 12.2381 9.97486 11.6355C10.5274 11.0326 10.8785 10.1256 10.8785 8.91513C10.8785 8.80922 10.9617 8.72337 11.0643 8.72337C11.1668 8.72337 11.25 8.80922 11.25 8.91513C11.25 10.2029 10.8751 11.2112 10.2447 11.8991C9.61401 12.5872 8.74299 12.9375 7.78408 12.9375C5.0466 12.9375 2.8125 10.631 2.8125 7.80481Z" fill="black"/>
<path d="M9 0.84375V0L9.5625 0.39375L10.125 0.7875L9.5625 1.2375L9 1.6875V0.84375Z" fill="white"/>
<path fill-rule="evenodd" clip-rule="evenodd" d="M9.2611 0.0251695L10.5943 0.878636C10.6501 0.914331 10.6856 0.982704 10.6874 1.05796C10.6893 1.13322 10.6571 1.20391 10.6032 1.24337L9.26996 2.21876C9.21531 2.25874 9.14674 2.26046 9.09072 2.22325C9.03471 2.18603 9 2.11571 9 2.03943V0.210572C9 0.136456 9.03278 0.0677981 9.0863 0.0297926C9.13982 -0.00821293 9.20621 -0.00996872 9.2611 0.0251695ZM9.35425 0.563115V1.6626L10.1558 1.07621L9.75977 0.822708L9.35425 0.563115Z" fill="black"/>
<path d="M8.9375 17.1562L9 18L8.1875 17.6062L7.3125 17.2125L8.125 16.7625L8.9375 16.3125V17.1562Z" fill="white"/>
<path fill-rule="evenodd" clip-rule="evenodd" d="M8.86218 15.7768C8.91655 15.814 8.95023 15.8843 8.95023 15.9606V16.868L8.99962 17.7754C9.00378 17.8519 8.97371 17.9251 8.92111 17.9665C8.86851 18.008 8.80167 18.0112 8.7466 17.9748L8.10193 17.5496L7.40753 17.1243C7.35172 17.0901 7.31541 17.0216 7.31267 16.9452C7.30992 16.8689 7.34117 16.7967 7.39431 16.7566L8.04127 16.2689L8.13137 16.4483L8.04127 16.2689L8.68824 15.7812C8.74128 15.7413 8.80782 15.7395 8.86218 15.7768ZM8.60643 16.3374L8.22146 16.6276L8.13394 16.4534L8.22146 16.6276L7.83767 16.9169L8.25801 17.1744C8.25956 17.1753 8.2611 17.1763 8.26263 17.1773L8.6359 17.4235L8.60681 16.889C8.60656 16.8843 8.60643 16.8797 8.60643 16.875V16.3374Z" fill="black"/>
<path d="M17.1562 9H18L17.6062 9.84375L17.2125 10.6875L16.7625 9.84375L16.3125 9.0649L17.1562 9Z" fill="white"/>
<path fill-rule="evenodd" clip-rule="evenodd" d="M16.861 9.00039C16.8657 9.00013 16.8703 9 16.875 9H17.7894C17.8635 9 17.9322 9.03278 17.9702 9.0863C18.0082 9.13982 18.01 9.20621 17.9748 9.2611L17.1214 10.5943C17.0857 10.6501 17.0173 10.6856 16.942 10.6874C16.8668 10.6893 16.7961 10.6571 16.7566 10.6032L16.2709 9.93932L15.7854 9.32666C15.7437 9.27406 15.7385 9.20676 15.7717 9.15007C15.8049 9.09338 15.8716 9.05588 15.9466 9.05167L16.861 9.00039ZM16.882 9.35425L16.3376 9.38478L16.6235 9.7455C16.6249 9.74728 16.6263 9.74909 16.6276 9.75092L16.9238 10.1558L17.4369 9.35425H16.882Z" fill="black"/>
<path d="M0.84375 9H0L0.39375 8.15625L0.7875 7.3125L1.2375 8.15625L1.6875 9H0.84375Z" fill="white"/>
<path fill-rule="evenodd" clip-rule="evenodd" d="M1.05796 7.31257C1.13322 7.31075 1.20391 7.34286 1.24337 7.39679L2.21876 8.73004C2.25874 8.78469 2.26046 8.85326 2.22325 8.90928C2.18603 8.96529 2.11571 9 2.03943 9H0.210572C0.136456 9 0.0677981 8.96722 0.0297926 8.9137C-0.00821293 8.86018 -0.00996872 8.79379 0.0251695 8.7389L0.878636 7.40565C0.914331 7.34989 0.982704 7.3144 1.05796 7.31257ZM1.07621 7.84422L0.563115 8.64575H1.6626L1.07621 7.84422Z" fill="black"/>
<path fill-rule="evenodd" clip-rule="evenodd" d="M9 6.95068C7.86819 6.95068 6.95068 7.86819 6.95068 9C6.95068 10.1318 7.86819 11.0493 9 11.0493C10.1318 11.0493 11.0493 10.1318 11.0493 9C11.0493 7.86819 10.1318 6.95068 9 6.95068ZM6.75 9C6.75 7.75736 7.75736 6.75 9 6.75C10.2426 6.75 11.25 7.75736 11.25 9C11.25 10.2426 10.2426 11.25 9 11.25C7.75736 11.25 6.75 10.2426 6.75 9Z" fill="black"/>
<path d="M11.25 9C11.25 10.2426 10.2426 11.25 9 11.25C7.75736 11.25 6.75 10.2426 6.75 9C6.75 7.75736 7.75736 6.75 9 6.75C10.2426 6.75 11.25 7.75736 11.25 9Z" fill="white"/>
<path fill-rule="evenodd" clip-rule="evenodd" d="M9 7.12496C7.96444 7.12496 7.12496 7.96444 7.12496 9C7.12496 10.0356 7.96444 10.875 9 10.875C10.0356 10.875 10.875 10.0356 10.875 9C10.875 7.96444 10.0356 7.12496 9 7.12496ZM6.75 9C6.75 7.75736 7.75736 6.75 9 6.75C10.2426 6.75 11.25 7.75736 11.25 9C11.25 10.2426 10.2426 11.25 9 11.25C7.75736 11.25 6.75 10.2426 6.75 9Z" fill="black"/>
</svg>
